<svg width="151" height="32" viewBox="0 0 151 32" fill="none" xmlns="http://www.w3.org/2000/svg">
<rect width="32" height="32" rx="5.33333" fill="black"/>
<path d="M16.0002 11.5555L11.5558 7.11108H17.4817L20.4447 10.074V16L16.0002 11.5555Z" fill="white"/>
<path d="M11.5558 16L16.0002 11.5555L10.0743 11.5555L7.11133 14.5185V20.4444L11.5558 16Z" fill="white"/>
<path d="M16.0002 20.4444L20.4447 16L24.8891 11.5555L24.8891 17.4815L21.9261 20.4444L16.0002 20.4444Z" fill="white"/>
<path d="M16.0002 20.4444L11.5558 16V21.9259L14.5187 24.8889H20.4447L16.0002 20.4444Z" fill="white"/>
<path d="M41.3807 8.45455L45.1662 19.9034H45.3153L49.0938 8.45455H51.9915L46.8636 23H43.6108L38.4901 8.45455H41.3807ZM54.1937 23V12.0909H56.7647V23H54.1937ZM55.4863 10.5426C55.0791 10.5426 54.7287 10.4077 54.4352 10.1378C54.1416 9.86316 53.9948 9.53409 53.9948 9.15057C53.9948 8.76231 54.1416 8.43324 54.4352 8.16335C54.7287 7.88873 55.0791 7.75142 55.4863 7.75142C55.8982 7.75142 56.2486 7.88873 56.5374 8.16335C56.831 8.43324 56.9778 8.76231 56.9778 9.15057C56.9778 9.53409 56.831 9.86316 56.5374 10.1378C56.2486 10.4077 55.8982 10.5426 55.4863 10.5426ZM68.4307 14.9744L66.0869 15.2301C66.0206 14.9934 65.9046 14.7708 65.7389 14.5625C65.5779 14.3542 65.3601 14.1861 65.0855 14.0582C64.8109 13.9304 64.4747 13.8665 64.077 13.8665C63.542 13.8665 63.0921 13.9825 62.7276 14.2145C62.3677 14.4465 62.1902 14.7472 62.1949 15.1165C62.1902 15.4337 62.3062 15.6918 62.5429 15.8906C62.7844 16.0895 63.1821 16.2528 63.7361 16.3807L65.5969 16.7784C66.6291 17.0009 67.3961 17.3537 67.898 17.8366C68.4046 18.3196 68.6603 18.9517 68.6651 19.733C68.6603 20.4195 68.4591 21.0256 68.0614 21.5511C67.6684 22.072 67.1215 22.4792 66.4207 22.7727C65.72 23.0663 64.9151 23.2131 64.006 23.2131C62.6707 23.2131 61.5959 22.9337 60.7815 22.375C59.9671 21.8116 59.4818 21.0279 59.3256 20.0241L61.8327 19.7827C61.9463 20.2751 62.1878 20.6468 62.5571 20.8977C62.9264 21.1487 63.407 21.2741 63.9989 21.2741C64.6097 21.2741 65.0997 21.1487 65.469 20.8977C65.8431 20.6468 66.0301 20.3366 66.0301 19.9673C66.0301 19.6548 65.9094 19.3968 65.6679 19.1932C65.4312 18.9896 65.0618 18.8333 64.5599 18.7244L62.6991 18.3338C61.6527 18.116 60.8786 17.7491 60.3767 17.233C59.8748 16.7121 59.6262 16.054 59.631 15.2585C59.6262 14.5862 59.8085 14.0038 60.1778 13.5114C60.5519 13.0142 61.0704 12.6307 61.7332 12.3608C62.4009 12.0862 63.1703 11.9489 64.0415 11.9489C65.3199 11.9489 66.326 12.2211 67.0599 12.7656C67.7986 13.3101 68.2555 14.0464 68.4307 14.9744ZM78.1382 18.4119V12.0909H80.7092V23H78.2163V21.0611H78.1027C77.8565 21.6719 77.4517 22.1714 76.8882 22.5597C76.3295 22.9479 75.6406 23.142 74.8214 23.142C74.1065 23.142 73.4744 22.9834 72.9251 22.6662C72.3806 22.3442 71.9545 21.8778 71.6467 21.267C71.339 20.6515 71.1851 19.9081 71.1851 19.0369V12.0909H73.7561V18.6392C73.7561 19.3305 73.9455 19.8797 74.3243 20.2869C74.7031 20.6941 75.2002 20.8977 75.8158 20.8977C76.1946 20.8977 76.5615 20.8054 76.9166 20.6207C77.2717 20.4361 77.5629 20.1615 77.7902 19.7969C78.0222 19.4276 78.1382 18.9659 78.1382 18.4119ZM86.8923 23.2202C86.201 23.2202 85.5783 23.0971 85.0244 22.8509C84.4751 22.5999 84.0395 22.2306 83.7175 21.7429C83.4003 21.2552 83.2417 20.6539 83.2417 19.9389C83.2417 19.3234 83.3553 18.8144 83.5826 18.4119C83.8099 18.0095 84.12 17.6875 84.513 17.446C84.906 17.2045 85.3487 17.0223 85.8411 16.8991C86.3383 16.7713 86.852 16.679 87.3823 16.6222C88.0215 16.5559 88.54 16.4967 88.9377 16.4446C89.3354 16.3878 89.6243 16.3026 89.8042 16.1889C89.9888 16.0705 90.0812 15.8883 90.0812 15.642V15.5994C90.0812 15.0644 89.9226 14.6501 89.6053 14.3565C89.2881 14.063 88.8312 13.9162 88.2346 13.9162C87.6049 13.9162 87.1053 14.0535 86.736 14.3281C86.3714 14.6027 86.1252 14.9271 85.9974 15.3011L83.5968 14.9602C83.7862 14.2973 84.0987 13.7434 84.5343 13.2983C84.9699 12.8485 85.5026 12.5123 86.1323 12.2898C86.762 12.0625 87.4581 11.9489 88.2204 11.9489C88.746 11.9489 89.2692 12.0104 89.79 12.1335C90.3108 12.2566 90.7867 12.4602 91.2175 12.7443C91.6484 13.0237 91.9941 13.4048 92.2545 13.8878C92.5196 14.3707 92.6522 14.9744 92.6522 15.6989V23H90.1806V21.5014H90.0954C89.9391 21.8045 89.719 22.0885 89.4349 22.3537C89.1555 22.6141 88.8028 22.8248 88.3766 22.9858C87.9552 23.142 87.4604 23.2202 86.8923 23.2202ZM87.5599 21.331C88.076 21.331 88.5234 21.2292 88.9022 21.0256C89.281 20.8172 89.5722 20.5426 89.7758 20.2017C89.9841 19.8608 90.0883 19.4891 90.0883 19.0866V17.8011C90.0078 17.8674 89.8705 17.929 89.6763 17.9858C89.487 18.0426 89.2739 18.0923 89.0371 18.1349C88.8004 18.1776 88.566 18.2154 88.334 18.2486C88.102 18.2817 87.9008 18.3101 87.7303 18.3338C87.3468 18.3859 87.0035 18.4711 86.7005 18.5895C86.3975 18.7079 86.1584 18.8736 85.9832 19.0866C85.808 19.295 85.7204 19.5649 85.7204 19.8963C85.7204 20.3698 85.8932 20.7273 86.2388 20.9688C86.5845 21.2102 87.0248 21.331 87.5599 21.331ZM98.2085 8.45455V23H95.6374V8.45455H98.2085ZM101.366 23V8.45455H110.684V10.6634H104.001V14.6122H110.045V16.821H104.001V23H101.366ZM117.329 23.2131C116.263 23.2131 115.34 22.9787 114.559 22.5099C113.778 22.0412 113.172 21.3854 112.741 20.5426C112.315 19.6998 112.101 18.715 112.101 17.5881C112.101 16.4612 112.315 15.474 112.741 14.6264C113.172 13.7789 113.778 13.1207 114.559 12.652C115.34 12.1832 116.263 11.9489 117.329 11.9489C118.394 11.9489 119.317 12.1832 120.099 12.652C120.88 13.1207 121.484 13.7789 121.91 14.6264C122.341 15.474 122.556 16.4612 122.556 17.5881C122.556 18.715 122.341 19.6998 121.91 20.5426C121.484 21.3854 120.88 22.0412 120.099 22.5099C119.317 22.9787 118.394 23.2131 117.329 23.2131ZM117.343 21.1534C117.921 21.1534 118.404 20.9948 118.792 20.6776C119.18 20.3556 119.469 19.9247 119.658 19.3849C119.852 18.8452 119.95 18.2438 119.95 17.581C119.95 16.9134 119.852 16.3097 119.658 15.7699C119.469 15.2254 119.18 14.7921 118.792 14.4702C118.404 14.1482 117.921 13.9872 117.343 13.9872C116.751 13.9872 116.259 14.1482 115.866 14.4702C115.477 14.7921 115.186 15.2254 114.992 15.7699C114.803 16.3097 114.708 16.9134 114.708 17.581C114.708 18.2438 114.803 18.8452 114.992 19.3849C115.186 19.9247 115.477 20.3556 115.866 20.6776C116.259 20.9948 116.751 21.1534 117.343 21.1534ZM125.138 23V12.0909H127.631V13.9091H127.745C127.944 13.2794 128.285 12.794 128.767 12.4531C129.255 12.1075 129.812 11.9347 130.437 11.9347C130.579 11.9347 130.737 11.9418 130.912 11.956C131.092 11.9654 131.241 11.982 131.36 12.0057V14.3707C131.251 14.3329 131.078 14.2997 130.841 14.2713C130.609 14.2382 130.384 14.2216 130.167 14.2216C129.698 14.2216 129.276 14.3234 128.902 14.527C128.533 14.7259 128.242 15.0028 128.029 15.358C127.816 15.7131 127.709 16.1226 127.709 16.5866V23H125.138ZM133.468 23V12.0909H135.925V13.9446H136.053C136.28 13.3196 136.657 12.8319 137.182 12.4815C137.708 12.1264 138.335 11.9489 139.064 11.9489C139.803 11.9489 140.426 12.1288 140.932 12.4886C141.444 12.8437 141.804 13.3291 142.012 13.9446H142.126C142.367 13.3385 142.774 12.8556 143.347 12.4957C143.925 12.1312 144.609 11.9489 145.4 11.9489C146.404 11.9489 147.223 12.2661 147.857 12.9006C148.492 13.535 148.809 14.4607 148.809 15.6776V23H146.231V16.0753C146.231 15.3982 146.051 14.9034 145.691 14.5909C145.331 14.2737 144.891 14.1151 144.37 14.1151C143.75 14.1151 143.264 14.3092 142.914 14.6974C142.568 15.081 142.395 15.5805 142.395 16.196V23H139.874V15.9688C139.874 15.4053 139.704 14.9555 139.363 14.6193C139.027 14.2831 138.586 14.1151 138.042 14.1151C137.672 14.1151 137.336 14.2098 137.033 14.3991C136.73 14.5838 136.489 14.8466 136.309 15.1875C136.129 15.5237 136.039 15.9167 136.039 16.3665V23H133.468Z" fill="black"/>
</svg>
